{
    "asset" : {
        "generator" : "Khronos glTF Blender I/O v1.4.40",
        "version" : "2.0"
    },
    "scene" : 0,
    "scenes" : [
        {
            "name" : "Scene",
            "nodes" : [
                0
            ]
        }
    ],
    "nodes" : [
        {
            "mesh" : 0,
            "name" : "doypack_v02.004",
            "rotation" : [
                0.011521382257342339,
                0,
                0,
                0.9999337196350098
            ],
            "scale" : [
                0.033001858741045,
                0.0330018624663353,
                0.0330018624663353
            ],
            "translation" : [
                -0.8197927474975586,
                4.974900722503662,
                -13.529378890991211
            ]
        }
    ],
    "materials" : [
        {
            "doubleSided" : true,
            "name" : "Ettiket.001",
            "pbrMetallicRoughness" : {
                "baseColorTexture" : {
                    "index" : 0,
                    "texCoord" : 0
                },
                "metallicFactor" : 0.8822170495986938,
                "roughnessFactor" : 0.18822172284126282
            }
        }
    ],
    "meshes" : [
        {
            "name" : "doypack_v02.004",
            "primitives" : [
                {
                    "attributes" : {
                        "POSITION" : 0,
                        "NORMAL" : 1,
                        "TEXCOORD_0" : 2
                    },
                    "indices" : 3,
                    "material" : 0
                }
            ]
        }
    ],
    "textures" : [
        {
            "sampler" : 0,
            "source" : 0
        }
    ],
    "images" : [
        {
            "bufferView" : 4,
            "mimeType" : "image/png",
            "name" : "EtikettV2"
        }
    ],
    "accessors" : [
        {
            "bufferView" : 0,
            "componentType" : 5126,
            "count" : 8189,
            "max" : [
                104.29170227050781,
                152.4032440185547,
                43.75630187988281
            ],
            "min" : [
                -104.46861267089844,
                -152.9344024658203,
                -43.6572265625
            ],
            "type" : "VEC3"
        },
        {
            "bufferView" : 1,
            "componentType" : 5126,
            "count" : 8189,
            "type" : "VEC3"
        },
        {
            "bufferView" : 2,
            "componentType" : 5126,
            "count" : 8189,
            "type" : "VEC2"
        },
        {
            "bufferView" : 3,
            "componentType" : 5123,
            "count" : 42456,
            "type" : "SCALAR"
        }
    ],
    "bufferViews" : [
        {
            "buffer" : 0,
            "byteLength" : 98268,
            "byteOffset" : 0
        },
        {
            "buffer" : 0,
            "byteLength" : 98268,
            "byteOffset" : 98268
        },
        {
            "buffer" : 0,
            "byteLength" : 65512,
            "byteOffset" : 196536
        },
        {
            "buffer" : 0,
            "byteLength" : 84912,
            "byteOffset" : 262048
        },
        {
            "buffer" : 0,
            "byteLength" : 432283,
            "byteOffset" : 346960
        }
    ],
    "samplers" : [
        {
            "magFilter" : 9729,
            "minFilter" : 9986
        }
    ],
    "buffers" : [
        {
            "byteLength" : 779244,
            "uri" : "data:application/octet-stream;base64,"
        }
    ]
}
